<svg width="48" height="48" viewBox="0 0 48 48" fill="none" xmlns="http://www.w3.org/2000/svg">
<path d="M20.1387 23.91C22.1106 29.4145 25.966 27.7212 27.2267 25.2295C27.6392 24.4143 26.8957 23.6421 25.9821 23.6421C25.0684 23.6421 24.3138 22.8778 24.6555 22.0305C25.0738 20.9935 25.9542 19.9462 27.6364 19.7482C30.945 19.3589 32.1127 23.6421 32.1127 24.8102C32.1127 25.9784 28.9988 32.4032 23.5493 31.8191C12.0666 29.4828 15.1806 15.8544 23.5493 12.5447C31.9181 9.23493 40.8707 15.8544 40.0922 26.173C39.3137 36.4917 26.8579 39.6067 25.4956 39.9961C24.1332 40.3855 8.95265 38.828 7.97954 25.3943C7.76965 11.8513 15.565 5.68551 23.3314 3.28371C25.4385 2.63208 25.6963 -0.0448254 23.4914 0.007205C12.2262 0.273036 1.85806e-05 7.89925 0 23.6421C-2.43843e-05 44.3023 18.0999 47.5891 24.3278 47.9784C30.5557 48.3678 43.0115 43.5006 46.7094 31.8191C50.4072 20.1376 45.9309 11.3765 36.1998 6.89864C26.5114 2.4404 10.8425 9.56131 11.8576 24.6108C11.8664 24.7413 11.891 24.879 11.9271 25.0048C16.0494 39.3842 26.1064 36.2822 32.1127 32.9872C38.146 29.6775 37.5621 16.4385 28.6095 15.8544C21.6772 15.4022 20.0204 20.5069 20.0389 23.3654C20.0401 23.5491 20.0767 23.737 20.1387 23.91Z" fill="#4A91FF"/>
</svg>
