<svg width="201" height="48" viewBox="0 0 201 48" fill="none" xmlns="http://www.w3.org/2000/svg">
<path d="M20.1387 23.91C22.1106 29.4145 25.966 27.7212 27.2267 25.2295C27.6392 24.4143 26.8957 23.6421 25.9821 23.6421C25.0684 23.6421 24.3138 22.8778 24.6555 22.0305C25.0738 20.9935 25.9542 19.9462 27.6364 19.7482C30.945 19.3589 32.1127 23.6421 32.1127 24.8102C32.1127 25.9784 28.9988 32.4032 23.5493 31.8191C12.0666 29.4828 15.1806 15.8544 23.5493 12.5447C31.9181 9.23493 40.8707 15.8544 40.0922 26.173C39.3137 36.4917 26.8579 39.6067 25.4956 39.9961C24.1332 40.3855 8.95265 38.828 7.97954 25.3943C7.76965 11.8513 15.565 5.68551 23.3314 3.2837C25.4385 2.63208 25.6963 -0.0448254 23.4914 0.00720514C12.2262 0.273037 1.85806e-05 7.89925 0 23.6421C-2.43843e-05 44.3023 18.0999 47.5891 24.3278 47.9784C30.5557 48.3678 43.0115 43.5006 46.7094 31.8191C50.4072 20.1376 45.9309 11.3765 36.1998 6.89864C26.5114 2.4404 10.8425 9.56131 11.8576 24.6108C11.8664 24.7413 11.891 24.879 11.9271 25.0048C16.0494 39.3842 26.1064 36.2822 32.1127 32.9872C38.146 29.6775 37.5621 16.4385 28.6095 15.8544C21.6772 15.4022 20.0204 20.5069 20.0389 23.3654C20.0401 23.5491 20.0767 23.737 20.1387 23.91Z" fill="#4A91FF"/>
<path d="M63.524 30.216C62.552 30.216 61.646 30.06 60.806 29.748C59.978 29.424 59.258 28.968 58.646 28.38C58.034 27.792 57.554 27.102 57.206 26.31C56.87 25.518 56.702 24.648 56.702 23.7C56.702 22.752 56.87 21.882 57.206 21.09C57.554 20.298 58.034 19.608 58.646 19.02C59.27 18.432 59.996 17.982 60.824 17.67C61.652 17.346 62.558 17.184 63.542 17.184C64.634 17.184 65.618 17.376 66.494 17.76C67.382 18.132 68.126 18.684 68.726 19.416L66.854 21.144C66.422 20.652 65.942 20.286 65.414 20.046C64.886 19.794 64.31 19.668 63.686 19.668C63.098 19.668 62.558 19.764 62.066 19.956C61.574 20.148 61.148 20.424 60.788 20.784C60.428 21.144 60.146 21.57 59.942 22.062C59.75 22.554 59.654 23.1 59.654 23.7C59.654 24.3 59.75 24.846 59.942 25.338C60.146 25.83 60.428 26.256 60.788 26.616C61.148 26.976 61.574 27.252 62.066 27.444C62.558 27.636 63.098 27.732 63.686 27.732C64.31 27.732 64.886 27.612 65.414 27.372C65.942 27.12 66.422 26.742 66.854 26.238L68.726 27.966C68.126 28.698 67.382 29.256 66.494 29.64C65.618 30.024 64.628 30.216 63.524 30.216ZM76.3832 20.172C77.1512 20.172 77.8352 20.328 78.4352 20.64C79.0472 20.94 79.5272 21.408 79.8752 22.044C80.2232 22.668 80.3972 23.472 80.3972 24.456V30H77.5892V24.888C77.5892 24.108 77.4152 23.532 77.0672 23.16C76.7312 22.788 76.2512 22.602 75.6272 22.602C75.1832 22.602 74.7812 22.698 74.4212 22.89C74.0732 23.07 73.7972 23.352 73.5932 23.736C73.4012 24.12 73.3052 24.612 73.3052 25.212V30H70.4972V16.644H73.3052V22.998L72.6752 22.188C73.0232 21.54 73.5212 21.042 74.1692 20.694C74.8172 20.346 75.5552 20.172 76.3832 20.172ZM87.8188 30.144C86.7148 30.144 85.7428 29.928 84.9028 29.496C84.0748 29.064 83.4328 28.476 82.9768 27.732C82.5208 26.976 82.2928 26.118 82.2928 25.158C82.2928 24.186 82.5148 23.328 82.9588 22.584C83.4148 21.828 84.0328 21.24 84.8128 20.82C85.5928 20.388 86.4748 20.172 87.4588 20.172C88.4068 20.172 89.2588 20.376 90.0148 20.784C90.7828 21.18 91.3888 21.756 91.8328 22.512C92.2768 23.256 92.4988 24.15 92.4988 25.194C92.4988 25.302 92.4928 25.428 92.4808 25.572C92.4688 25.704 92.4568 25.83 92.4448 25.95H84.5788V24.312H90.9688L89.8888 24.798C89.8888 24.294 89.7868 23.856 89.5828 23.484C89.3788 23.112 89.0968 22.824 88.7368 22.62C88.3768 22.404 87.9568 22.296 87.4768 22.296C86.9968 22.296 86.5708 22.404 86.1988 22.62C85.8388 22.824 85.5568 23.118 85.3528 23.502C85.1488 23.874 85.0468 24.318 85.0468 24.834V25.266C85.0468 25.794 85.1608 26.262 85.3888 26.67C85.6288 27.066 85.9588 27.372 86.3788 27.588C86.8108 27.792 87.3148 27.894 87.8908 27.894C88.4068 27.894 88.8568 27.816 89.2408 27.66C89.6368 27.504 89.9968 27.27 90.3208 26.958L91.8148 28.578C91.3708 29.082 90.8128 29.472 90.1408 29.748C89.4688 30.012 88.6948 30.144 87.8188 30.144ZM99.0483 30.144C98.0043 30.144 97.0743 29.934 96.2583 29.514C95.4423 29.082 94.8003 28.488 94.3323 27.732C93.8763 26.976 93.6483 26.118 93.6483 25.158C93.6483 24.186 93.8763 23.328 94.3323 22.584C94.8003 21.828 95.4423 21.24 96.2583 20.82C97.0743 20.388 98.0043 20.172 99.0483 20.172C100.068 20.172 100.956 20.388 101.712 20.82C102.468 21.24 103.026 21.846 103.386 22.638L101.208 23.808C100.956 23.352 100.638 23.016 100.254 22.8C99.8823 22.584 99.4743 22.476 99.0303 22.476C98.5503 22.476 98.1183 22.584 97.7343 22.8C97.3503 23.016 97.0443 23.322 96.8163 23.718C96.6003 24.114 96.4923 24.594 96.4923 25.158C96.4923 25.722 96.6003 26.202 96.8163 26.598C97.0443 26.994 97.3503 27.3 97.7343 27.516C98.1183 27.732 98.5503 27.84 99.0303 27.84C99.4743 27.84 99.8823 27.738 100.254 27.534C100.638 27.318 100.956 26.976 101.208 26.508L103.386 27.696C103.026 28.476 102.468 29.082 101.712 29.514C100.956 29.934 100.068 30.144 99.0483 30.144ZM107.272 28.02L107.344 24.6L111.862 20.316H115.21L110.872 24.726L109.414 25.914L107.272 28.02ZM104.95 30V16.644H107.758V30H104.95ZM112.168 30L108.892 25.932L110.656 23.754L115.57 30H112.168ZM121.171 30.216C120.163 30.216 119.197 30.084 118.273 29.82C117.349 29.544 116.605 29.19 116.041 28.758L117.031 26.562C117.571 26.946 118.207 27.264 118.939 27.516C119.683 27.756 120.433 27.876 121.189 27.876C121.765 27.876 122.227 27.822 122.575 27.714C122.935 27.594 123.199 27.432 123.367 27.228C123.535 27.024 123.619 26.79 123.619 26.526C123.619 26.19 123.487 25.926 123.223 25.734C122.959 25.53 122.611 25.368 122.179 25.248C121.747 25.116 121.267 24.996 120.739 24.888C120.223 24.768 119.701 24.624 119.173 24.456C118.657 24.288 118.183 24.072 117.751 23.808C117.319 23.544 116.965 23.196 116.689 22.764C116.425 22.332 116.293 21.78 116.293 21.108C116.293 20.388 116.485 19.734 116.869 19.146C117.265 18.546 117.853 18.072 118.633 17.724C119.425 17.364 120.415 17.184 121.603 17.184C122.395 17.184 123.175 17.28 123.943 17.472C124.711 17.652 125.389 17.928 125.977 18.3L125.077 20.514C124.489 20.178 123.901 19.932 123.313 19.776C122.725 19.608 122.149 19.524 121.585 19.524C121.021 19.524 120.559 19.59 120.199 19.722C119.839 19.854 119.581 20.028 119.425 20.244C119.269 20.448 119.191 20.688 119.191 20.964C119.191 21.288 119.323 21.552 119.587 21.756C119.851 21.948 120.199 22.104 120.631 22.224C121.063 22.344 121.537 22.464 122.053 22.584C122.581 22.704 123.103 22.842 123.619 22.998C124.147 23.154 124.627 23.364 125.059 23.628C125.491 23.892 125.839 24.24 126.103 24.672C126.379 25.104 126.517 25.65 126.517 26.31C126.517 27.018 126.319 27.666 125.923 28.254C125.527 28.842 124.933 29.316 124.141 29.676C123.361 30.036 122.371 30.216 121.171 30.216ZM134.036 30.144C133.22 30.144 132.506 29.964 131.894 29.604C131.282 29.244 130.802 28.698 130.454 27.966C130.118 27.222 129.95 26.286 129.95 25.158C129.95 24.018 130.112 23.082 130.436 22.35C130.76 21.618 131.228 21.072 131.84 20.712C132.452 20.352 133.184 20.172 134.036 20.172C134.948 20.172 135.764 20.382 136.484 20.802C137.216 21.21 137.792 21.786 138.212 22.53C138.644 23.274 138.86 24.15 138.86 25.158C138.86 26.178 138.644 27.06 138.212 27.804C137.792 28.548 137.216 29.124 136.484 29.532C135.764 29.94 134.948 30.144 134.036 30.144ZM128.312 33.492V20.316H130.994V22.296L130.94 25.176L131.12 28.038V33.492H128.312ZM133.55 27.84C134.018 27.84 134.432 27.732 134.792 27.516C135.164 27.3 135.458 26.994 135.674 26.598C135.902 26.19 136.016 25.71 136.016 25.158C136.016 24.594 135.902 24.114 135.674 23.718C135.458 23.322 135.164 23.016 134.792 22.8C134.432 22.584 134.018 22.476 133.55 22.476C133.082 22.476 132.662 22.584 132.29 22.8C131.918 23.016 131.624 23.322 131.408 23.718C131.192 24.114 131.084 24.594 131.084 25.158C131.084 25.71 131.192 26.19 131.408 26.598C131.624 26.994 131.918 27.3 132.29 27.516C132.662 27.732 133.082 27.84 133.55 27.84ZM145.545 30.144C144.441 30.144 143.469 29.928 142.629 29.496C141.801 29.064 141.159 28.476 140.703 27.732C140.247 26.976 140.019 26.118 140.019 25.158C140.019 24.186 140.241 23.328 140.685 22.584C141.141 21.828 141.759 21.24 142.539 20.82C143.319 20.388 144.201 20.172 145.185 20.172C146.133 20.172 146.985 20.376 147.741 20.784C148.509 21.18 149.115 21.756 149.559 22.512C150.003 23.256 150.225 24.15 150.225 25.194C150.225 25.302 150.219 25.428 150.207 25.572C150.195 25.704 150.183 25.83 150.171 25.95H142.305V24.312H148.695L147.615 24.798C147.615 24.294 147.513 23.856 147.309 23.484C147.105 23.112 146.823 22.824 146.463 22.62C146.103 22.404 145.683 22.296 145.203 22.296C144.723 22.296 144.297 22.404 143.925 22.62C143.565 22.824 143.283 23.118 143.079 23.502C142.875 23.874 142.773 24.318 142.773 24.834V25.266C142.773 25.794 142.887 26.262 143.115 26.67C143.355 27.066 143.685 27.372 144.105 27.588C144.537 27.792 145.041 27.894 145.617 27.894C146.133 27.894 146.583 27.816 146.967 27.66C147.363 27.504 147.723 27.27 148.047 26.958L149.541 28.578C149.097 29.082 148.539 29.472 147.867 29.748C147.195 30.012 146.421 30.144 145.545 30.144ZM156.901 30.144C155.797 30.144 154.825 29.928 153.985 29.496C153.157 29.064 152.515 28.476 152.059 27.732C151.603 26.976 151.375 26.118 151.375 25.158C151.375 24.186 151.597 23.328 152.041 22.584C152.497 21.828 153.115 21.24 153.895 20.82C154.675 20.388 155.557 20.172 156.541 20.172C157.489 20.172 158.341 20.376 159.097 20.784C159.865 21.18 160.471 21.756 160.915 22.512C161.359 23.256 161.581 24.15 161.581 25.194C161.581 25.302 161.575 25.428 161.563 25.572C161.551 25.704 161.539 25.83 161.527 25.95H153.661V24.312H160.051L158.971 24.798C158.971 24.294 158.869 23.856 158.665 23.484C158.461 23.112 158.179 22.824 157.819 22.62C157.459 22.404 157.039 22.296 156.559 22.296C156.079 22.296 155.653 22.404 155.281 22.62C154.921 22.824 154.639 23.118 154.435 23.502C154.231 23.874 154.129 24.318 154.129 24.834V25.266C154.129 25.794 154.243 26.262 154.471 26.67C154.711 27.066 155.041 27.372 155.461 27.588C155.893 27.792 156.397 27.894 156.973 27.894C157.489 27.894 157.939 27.816 158.323 27.66C158.719 27.504 159.079 27.27 159.403 26.958L160.897 28.578C160.453 29.082 159.895 29.472 159.223 29.748C158.551 30.012 157.777 30.144 156.901 30.144ZM168.13 30.144C167.086 30.144 166.156 29.934 165.34 29.514C164.524 29.082 163.882 28.488 163.414 27.732C162.958 26.976 162.73 26.118 162.73 25.158C162.73 24.186 162.958 23.328 163.414 22.584C163.882 21.828 164.524 21.24 165.34 20.82C166.156 20.388 167.086 20.172 168.13 20.172C169.15 20.172 170.038 20.388 170.794 20.82C171.55 21.24 172.108 21.846 172.468 22.638L170.29 23.808C170.038 23.352 169.72 23.016 169.336 22.8C168.964 22.584 168.556 22.476 168.112 22.476C167.632 22.476 167.2 22.584 166.816 22.8C166.432 23.016 166.126 23.322 165.898 23.718C165.682 24.114 165.574 24.594 165.574 25.158C165.574 25.722 165.682 26.202 165.898 26.598C166.126 26.994 166.432 27.3 166.816 27.516C167.2 27.732 167.632 27.84 168.112 27.84C168.556 27.84 168.964 27.738 169.336 27.534C169.72 27.318 170.038 26.976 170.29 26.508L172.468 27.696C172.108 28.476 171.55 29.082 170.794 29.514C170.038 29.934 169.15 30.144 168.13 30.144ZM179.918 20.172C180.686 20.172 181.37 20.328 181.97 20.64C182.582 20.94 183.062 21.408 183.41 22.044C183.758 22.668 183.932 23.472 183.932 24.456V30H181.124V24.888C181.124 24.108 180.95 23.532 180.602 23.16C180.266 22.788 179.786 22.602 179.162 22.602C178.718 22.602 178.316 22.698 177.956 22.89C177.608 23.07 177.332 23.352 177.128 23.736C176.936 24.12 176.84 24.612 176.84 25.212V30H174.032V16.644H176.84V22.998L176.21 22.188C176.558 21.54 177.056 21.042 177.704 20.694C178.352 20.346 179.09 20.172 179.918 20.172Z" fill="white"/>
<path d="M181.847 30L187.151 18.1H189.871L195.192 30H192.302L187.95 19.494H189.038L184.669 30H181.847ZM184.499 27.45L185.23 25.359H191.35L192.098 27.45H184.499ZM196.427 30V18.1H199.181V30H196.427Z" fill="#4A91FF"/>
</svg>
